<svg width="20" height="20" viewBox="0 0 20 20" fill="none" xmlns="http://www.w3.org/2000/svg">
<path d="M13.3334 17.4998V15.8331C13.3334 14.9491 12.9822 14.1012 12.3571 13.4761C11.732 12.851 10.8841 12.4998 10.0001 12.4998H5.00008C4.11603 12.4998 3.26818 12.851 2.64306 13.4761C2.01794 14.1012 1.66675 14.9491 1.66675 15.8331V17.4998M13.3334 2.60645C14.0482 2.79175 14.6812 3.20917 15.1331 3.79316C15.5851 4.37716 15.8302 5.09469 15.8302 5.83311C15.8302 6.57154 15.5851 7.28906 15.1331 7.87306C14.6812 8.45706 14.0482 8.87447 13.3334 9.05978M18.3334 17.4998V15.8331C18.3329 15.0946 18.087 14.3771 17.6346 13.7934C17.1821 13.2097 16.5485 12.7928 15.8334 12.6081" stroke="#4A4A4A" stroke-linecap="round" stroke-linejoin="round"/>
<path d="M7.50008 9.16667C9.34103 9.16667 10.8334 7.67428 10.8334 5.83333C10.8334 3.99238 9.34103 2.5 7.50008 2.5C5.65913 2.5 4.16675 3.99238 4.16675 5.83333C4.16675 7.67428 5.65913 9.16667 7.50008 9.16667Z" stroke="#4A4A4A" stroke-linecap="round" stroke-linejoin="round"/>
</svg>
