<svg width="20" height="20" viewBox="0 0 20 20" fill="none" xmlns="http://www.w3.org/2000/svg">
<path d="M3 17.8333L5.5 15.3333M7.58333 10.75L9.66667 8.66667M10.0833 13.25L12.1667 11.1667M16.3333 2L13 5.33333H18L14.6667 8.66667M6.58333 16.4167C6.76914 16.6031 6.98993 16.7511 7.23303 16.852C7.47613 16.9529 7.73677 17.0049 8 17.0049C8.26323 17.0049 8.52387 16.9529 8.76697 16.852C9.01007 16.7511 9.23086 16.6031 9.41667 16.4167L11.3333 14.5L6.33333 9.5L4.41667 11.4167C4.23021 11.6025 4.08227 11.8233 3.98133 12.0664C3.88038 12.3095 3.82842 12.5701 3.82842 12.8333C3.82842 13.0966 3.88038 13.3572 3.98133 13.6003C4.08227 13.8434 4.23021 14.0642 4.41667 14.25L6.58333 16.4167Z" stroke="#4A4A4A" stroke-linecap="round" stroke-linejoin="round"/>
</svg>
